<svg width="809" height="155" viewBox="0 0 809 155" fill="none" xmlns="http://www.w3.org/2000/svg">
<path d="M168.27 75.98V75.35C181.39 71.54 190.92 66.46 190.92 40.22C190.92 10.15 172.71 0 135.25 0H0V153.24H149.65C176.53 153.24 196.43 146.24 196.43 112.61C196.43 89.53 188.8 78.53 168.27 75.98ZM46.98 36.83H130.18C138.85 36.83 143.93 40.01 143.93 48.9C143.93 57.57 138.85 60.74 130.18 60.74H46.98V36.83ZM131.23 116.41H46.98V92.53H131.23C141.38 92.53 148.16 94.86 148.16 105.22C148.16 114.08 141.36 116.41 131.23 116.41Z" fill="#F2F2F2"/>
<path d="M347.41 35.0002H258.49C257.535 34.9989 256.59 35.1857 255.708 35.55C254.826 35.9142 254.025 36.4488 253.35 37.1231C252.674 37.7974 252.139 38.5981 251.773 39.4796C251.408 40.3611 251.22 41.306 251.22 42.2602V109.53C251.22 111.803 252.123 113.983 253.73 115.59C255.337 117.197 257.517 118.1 259.79 118.1H346.74C348.795 118.1 350.766 117.284 352.22 115.83C353.673 114.377 354.49 112.406 354.49 110.35V102.53H399.43V122.32C399.443 129.288 397.068 136.05 392.701 141.48C388.334 146.909 382.238 150.679 375.43 152.16C363.76 154.67 348.43 154.96 329.1 154.96H241.57C231.904 154.96 222.634 151.123 215.796 144.293C208.957 137.462 205.11 128.196 205.1 118.53V34.8302C205.1 34.3302 205.1 33.8302 205.1 33.3202C205.86 14.7002 221.66 0.200216 240.3 0.200216H361.65C367.869 0.15356 374.047 1.2064 379.9 3.3102L380.31 3.45022C386.067 5.64427 391.02 9.53996 394.509 14.6188C397.998 19.6976 399.857 25.7185 399.84 31.8802V48.8002H354.36V41.9902C354.357 40.144 353.625 38.3737 352.324 37.0645C351.022 35.7553 349.256 35.0134 347.41 35.0002Z" fill="#F2F2F2"/>
<path d="M602.67 88.3399V123.34C602.71 128.824 601.113 134.195 598.085 138.768C595.057 143.34 590.735 146.906 585.67 149.01C580.37 151.15 573.79 152.57 565.67 153.49H441.47C433.257 153.477 425.385 150.205 419.582 144.393C413.779 138.58 410.52 130.703 410.52 122.49V104.77H455.77V112.97C455.77 113.703 455.915 114.428 456.196 115.105C456.477 115.781 456.89 116.395 457.409 116.912C457.928 117.429 458.545 117.838 459.223 118.115C459.901 118.393 460.627 118.534 461.36 118.53H547.36C548.7 118.531 550.027 118.268 551.265 117.756C552.503 117.244 553.628 116.493 554.575 115.545C555.523 114.598 556.274 113.473 556.786 112.235C557.298 110.997 557.561 109.67 557.56 108.33V102.92C557.56 100.215 556.485 97.6203 554.572 95.7075C552.66 93.7946 550.065 92.7199 547.36 92.7199C547.093 92.7199 546.813 92.7199 546.52 92.7199H303.17V60.9399H575.27C582.537 60.9399 589.506 63.8267 594.645 68.9652C599.783 74.1037 602.67 81.073 602.67 88.3399Z" fill="#F2F2F2"/>
<path d="M601.44 30.6299V45.6299H557.54V44.1799C557.54 41.4429 556.452 38.8179 554.517 36.8826C552.582 34.9472 549.957 33.8599 547.22 33.8599H464.73C463.374 33.8599 462.032 34.1268 460.78 34.6455C459.528 35.1641 458.39 35.9243 457.432 36.8826C456.474 37.8409 455.714 38.9785 455.195 40.2306C454.676 41.4827 454.41 42.8247 454.41 44.1799V50.4299H410.52V30.6299C410.52 22.5461 413.731 14.7934 419.447 9.0773C425.163 3.36119 432.916 0.149902 441 0.149902H571C579.076 0.160502 586.819 3.37647 592.526 9.09143C598.234 14.8064 601.44 22.553 601.44 30.6299Z" fill="#F2F2F2"/>
<path d="M764.751 52.0999V42.0099C764.751 40.1958 764.03 38.4561 762.747 37.1733C761.464 35.8906 759.725 35.1699 757.911 35.1699H666.971C665.157 35.1699 663.417 35.8906 662.134 37.1733C660.851 38.4561 660.131 40.1958 660.131 42.0099V111.61C660.131 113.424 660.851 115.164 662.134 116.447C663.417 117.729 665.157 118.45 666.971 118.45H757.911C759.725 118.45 761.464 117.729 762.747 116.447C764.03 115.164 764.751 113.424 764.751 111.61V100.61H808.751V121.97C808.751 130.324 805.432 138.336 799.524 144.244C793.617 150.151 785.605 153.47 777.251 153.47H647.641C639.286 153.47 631.274 150.151 625.367 144.244C619.459 138.336 616.141 130.324 616.141 121.97V31.6499C616.141 23.2956 619.459 15.2834 625.367 9.37604C631.274 3.46864 639.286 0.149902 647.641 0.149902H777.251C785.605 0.149902 793.617 3.46864 799.524 9.37604C805.432 15.2834 808.751 23.2956 808.751 31.6499V52.0999H764.751Z" fill="#F2F2F2"/>
</svg>
