<svg width="809" height="209" viewBox="0 0 809 209" fill="none" xmlns="http://www.w3.org/2000/svg">
<g clip-path="url(#clip0_2237_28)">
<path d="M33.87 196.62C33.87 203.22 28.77 207.55 19.57 207.55H0V170.61H18.81C27.54 170.61 32.46 174.11 32.46 180.43C32.5036 181.937 32.1402 183.428 31.4081 184.746C30.6761 186.064 29.6024 187.16 28.3 187.92C31.76 189.36 33.87 192.19 33.87 196.62ZM11.13 178.53V184.75H17.05C19.86 184.75 21.27 183.69 21.27 181.7C21.27 179.48 19.75 178.53 17.05 178.53H11.13ZM22.44 196.06C22.44 193.84 20.86 192.73 17.76 192.73H11.13V199.61H17.76C20.57 199.62 22.44 198.62 22.44 196.07V196.06Z" fill="#8F0000"/>
<path d="M64.5104 201.53H51.1504L49.1504 207.53H38.1504L51.1004 170.59H64.9304L77.8704 207.53H66.5104L64.5104 201.53ZM61.7604 193.32L58.4204 183.39L57.8304 181.06L57.1904 183.44L53.9104 193.32H61.7604Z" fill="#8F0000"/>
<path d="M121.58 188.91C121.58 200.62 113.58 207.55 100.49 207.55H85.0195V170.61H100.84C113.79 170.61 121.58 177.16 121.58 188.91ZM109.75 189.19C109.75 182.76 106.35 179.71 99.8995 179.65H96.1495V198.45H100.02C106.36 198.45 109.75 195.53 109.75 189.19Z" fill="#8F0000"/>
<path d="M180.529 186.81V207.53H172.149L171.559 205.26C168.749 207.48 165.049 208.47 160.659 208.47C150.579 208.47 143.199 201.87 143.199 189.47C143.199 177.07 150.989 169.67 162.539 169.67C172.539 169.67 178.539 174.38 179.999 182.76L168.999 184.09C168.299 180.76 165.899 179.15 162.499 179.15C158.039 179.15 155.109 182.65 155.109 189.08C155.109 195.74 157.929 198.95 162.379 198.95C167.479 198.95 169.379 196.68 170.289 194.85H163.289V186.85L180.529 186.81Z" fill="#8F0000"/>
<path d="M227.3 196.4H222.91V207.53H211.77V170.61H229.7C239.55 170.61 245.12 175.27 245.12 183.48C245.213 185.798 244.601 188.09 243.366 190.053C242.131 192.017 240.329 193.56 238.2 194.48L245.99 207.53H233.36L227.3 196.4ZM222.91 187.86H228.36C231.7 187.86 233.69 186.53 233.69 183.76C233.69 180.99 231.75 179.71 228.36 179.71H222.91V187.86Z" fill="#8F0000"/>
<path d="M189.42 170.61H200.55V207.53H189.42V170.61Z" fill="#8F0000"/>
<path d="M283.409 197.9V207.53H255.869V170.61H266.999V197.9H283.409Z" fill="#8F0000"/>
<path d="M302.221 197.01L313.001 195.53C313.641 198.58 315.751 199.75 319.441 199.75C322.961 199.75 324.721 199.02 324.721 196.97C324.721 194.92 323.251 194.37 315.931 193.2C308.611 192.03 302.861 189.76 302.861 181.83C302.861 174.07 309.131 169.63 318.971 169.63C328.291 169.63 333.511 173.12 334.801 180.56L324.011 182C323.491 179.22 321.381 178.39 318.451 178.39C315.521 178.39 314.111 179.39 314.111 180.89C314.111 182.61 315.341 183.27 322.781 184.55C331.691 186.05 335.851 189.21 335.851 196.25C335.851 204.46 329.641 208.45 318.801 208.45C308.721 208.53 303.271 205.06 302.221 197.01Z" fill="#8F0000"/>
<path d="M373.82 180.6H363.1V207.53H352.1V180.6H341.1V170.6H373.86L373.82 180.6Z" fill="#8F0000"/>
<path d="M397.6 196.4H393.21V207.53H382.08V170.61H400.01C409.85 170.61 415.42 175.27 415.42 183.48C415.513 185.798 414.902 188.09 413.666 190.053C412.431 192.017 410.63 193.56 408.5 194.48L416.3 207.57H403.64L397.6 196.4ZM393.21 187.86H398.66C402 187.86 403.99 186.53 403.99 183.76C403.99 180.99 402.06 179.71 398.66 179.71H393.21V187.86Z" fill="#8F0000"/>
<path d="M453.44 198.84V207.53H425.02V170.61H452.86V179.26H436.16V184.26H451.51V192.91H436.16V198.84H453.44Z" fill="#8F0000"/>
<path d="M497.621 170.61V207.53H486.491L473.491 187.07L473.781 194.27V207.53H463.051V170.61H474.771L487.081 190.02L486.841 183.37V170.61H497.621Z" fill="#8F0000"/>
<path d="M544.26 186.81V207.53H535.88L535.3 205.26C532.48 207.53 528.79 208.53 524.36 208.53C514.28 208.53 506.9 201.93 506.9 189.53C506.9 177.13 514.69 169.73 526.23 169.73C536.23 169.73 542.23 174.44 543.69 182.82L532.69 184.15C531.99 180.82 529.58 179.21 526.18 179.21C521.73 179.21 518.8 182.71 518.8 189.14C518.8 195.8 521.61 199.01 526.07 199.01C531.16 199.01 533.07 196.74 533.98 194.91H526.98V186.91L544.26 186.81Z" fill="#8F0000"/>
<path d="M582.99 180.6H572.27V207.53H561.27V180.6H550.27V170.6H583.03L582.99 180.6Z" fill="#8F0000"/>
<path d="M626.7 170.61V207.53H615.57V194.02H602.36V207.53H591.25V170.61H602.36V184.03H615.55V170.61H626.7Z" fill="#8F0000"/>
<path d="M650.43 189.3C650.43 177.21 658.43 169.67 669.35 169.67C678.9 169.67 685.41 173.77 686.58 183.15L676.03 184.53C675.27 180.7 672.93 179.2 669.53 179.2C665.43 179.2 662.32 182.59 662.32 189.08C662.32 195.9 665.25 199 669.53 199C672.99 199 675.39 197.56 676.33 193.51L686.82 194.84C685.64 204.16 678.49 208.54 668.94 208.54C658.28 208.53 650.43 201.89 650.43 189.3Z" fill="#8F0000"/>
<path d="M722.849 197.9V207.53H695.359V170.61H706.489V197.9H722.849Z" fill="#8F0000"/>
<path d="M764.099 170.61V192.85C764.099 202.61 757.299 208.49 746.519 208.49C735.739 208.49 729.289 202.84 729.289 192.96V170.61H740.289V191.74C740.289 196.57 742.809 198.62 746.909 198.62C750.719 198.62 753.239 196.62 753.239 191.8L753.059 170.61H764.099Z" fill="#8F0000"/>
<path d="M808.749 196.62C808.749 203.22 803.649 207.55 794.449 207.55H774.869V170.61H793.689C802.419 170.61 807.339 174.11 807.339 180.43C807.381 181.937 807.016 183.427 806.284 184.744C805.553 186.062 804.48 187.159 803.179 187.92C806.639 189.36 808.749 192.19 808.749 196.62ZM786.009 178.53V184.75H791.929C794.739 184.75 796.149 183.69 796.149 181.7C796.149 179.48 794.619 178.53 791.929 178.53H786.009ZM797.359 196.07C797.359 193.85 795.779 192.74 792.669 192.74H786.049V199.62H792.669C795.439 199.62 797.359 198.62 797.359 196.07Z" fill="#8F0000"/>
<path d="M168.27 75.98V75.35C181.39 71.54 190.92 66.46 190.92 40.22C190.92 10.15 172.71 0 135.25 0H0V153.24H149.65C176.53 153.24 196.43 146.24 196.43 112.61C196.43 89.53 188.8 78.53 168.27 75.98ZM46.98 36.83H130.18C138.85 36.83 143.93 40.01 143.93 48.9C143.93 57.57 138.85 60.74 130.18 60.74H46.98V36.83ZM131.23 116.41H46.98V92.53H131.23C141.38 92.53 148.16 94.86 148.16 105.22C148.16 114.08 141.36 116.41 131.23 116.41Z" fill="#F2F2F2"/>
<path d="M347.41 35H258.49C257.535 34.9986 256.59 35.1855 255.708 35.5497C254.826 35.914 254.025 36.4485 253.35 37.1228C252.674 37.7971 252.139 38.5979 251.773 39.4794C251.408 40.3608 251.22 41.3057 251.22 42.26V109.53C251.22 111.803 252.123 113.983 253.73 115.59C255.337 117.197 257.517 118.1 259.79 118.1H346.74C348.795 118.1 350.766 117.283 352.22 115.83C353.673 114.377 354.49 112.405 354.49 110.35V102.53H399.43V122.32C399.443 129.288 397.068 136.05 392.701 141.479C388.334 146.909 382.238 150.679 375.43 152.16C363.76 154.67 348.43 154.96 329.1 154.96H241.57C231.904 154.96 222.634 151.123 215.796 144.292C208.957 137.461 205.11 128.195 205.1 118.53V34.8299C205.1 34.3299 205.1 33.83 205.1 33.32C205.86 14.7 221.66 0.199972 240.3 0.199972H361.65C367.869 0.153315 374.047 1.20616 379.9 3.30996L380.31 3.44997C386.067 5.64402 391.02 9.53972 394.509 14.6185C397.998 19.6973 399.857 25.7183 399.84 31.88V48.7999H354.36V41.9899C354.357 40.1438 353.625 38.3734 352.324 37.0643C351.022 35.7551 349.256 35.0131 347.41 35Z" fill="#F2F2F2"/>
<path d="M602.67 88.3399V123.34C602.71 128.824 601.113 134.195 598.085 138.768C595.057 143.34 590.735 146.906 585.67 149.01C580.37 151.15 573.79 152.57 565.67 153.49H441.47C433.257 153.477 425.385 150.205 419.582 144.393C413.779 138.58 410.52 130.703 410.52 122.49V104.77H455.77V112.97C455.77 113.703 455.915 114.428 456.196 115.105C456.477 115.781 456.89 116.395 457.409 116.912C457.928 117.429 458.545 117.838 459.223 118.115C459.901 118.393 460.627 118.534 461.36 118.53H547.36C548.7 118.531 550.027 118.268 551.265 117.756C552.503 117.244 553.628 116.493 554.575 115.545C555.523 114.598 556.274 113.473 556.786 112.235C557.298 110.997 557.561 109.67 557.56 108.33V102.92C557.56 100.215 556.485 97.6203 554.572 95.7075C552.66 93.7946 550.065 92.7199 547.36 92.7199C547.093 92.7199 546.813 92.7199 546.52 92.7199H303.17V60.9399H575.27C582.537 60.9399 589.506 63.8267 594.645 68.9652C599.783 74.1037 602.67 81.073 602.67 88.3399Z" fill="#F2F2F2"/>
<path d="M601.44 30.6299V45.6299H557.54V44.1799C557.54 41.4429 556.452 38.8179 554.517 36.8826C552.582 34.9472 549.957 33.8599 547.22 33.8599H464.73C463.374 33.8599 462.032 34.1268 460.78 34.6455C459.528 35.1641 458.39 35.9243 457.432 36.8826C456.474 37.8409 455.714 38.9785 455.195 40.2306C454.676 41.4827 454.41 42.8247 454.41 44.1799V50.4299H410.52V30.6299C410.52 22.5461 413.731 14.7934 419.447 9.0773C425.163 3.36119 432.916 0.149902 441 0.149902H571C579.076 0.160502 586.819 3.37647 592.526 9.09143C598.234 14.8064 601.44 22.553 601.44 30.6299Z" fill="#F2F2F2"/>
<path d="M764.751 52.0999V42.0099C764.751 40.1958 764.03 38.4561 762.747 37.1733C761.464 35.8906 759.725 35.1699 757.911 35.1699H666.971C665.157 35.1699 663.417 35.8906 662.134 37.1733C660.851 38.4561 660.131 40.1958 660.131 42.0099V111.61C660.131 113.424 660.851 115.164 662.134 116.447C663.417 117.729 665.157 118.45 666.971 118.45H757.911C759.725 118.45 761.464 117.729 762.747 116.447C764.03 115.164 764.751 113.424 764.751 111.61V100.61H808.751V121.97C808.751 130.324 805.432 138.336 799.524 144.244C793.617 150.151 785.605 153.47 777.251 153.47H647.641C639.286 153.47 631.274 150.151 625.367 144.244C619.459 138.336 616.141 130.324 616.141 121.97V31.6499C616.141 23.2956 619.459 15.2834 625.367 9.37604C631.274 3.46864 639.286 0.149902 647.641 0.149902H777.251C785.605 0.149902 793.617 3.46864 799.524 9.37604C805.432 15.2834 808.751 23.2956 808.751 31.6499V52.0999H764.751Z" fill="#F2F2F2"/>
</g>
<defs>
<clipPath id="clip0_2237_28">
<rect width="808.75" height="208.5" fill="white"/>
</clipPath>
</defs>
</svg>
